<svg width="136" height="25" viewBox="0 0 136 25" fill="none" xmlns="http://www.w3.org/2000/svg">
<path d="M13.6487 16.4881C11.9044 18.0988 10.0212 18.9349 7.99921 18.9964C5.97719 19.058 4.13848 18.3193 2.48309 16.7805C0.915467 15.2907 0.026681 13.3022 0 11.2251C0 9.39902 0.833251 7.71652 2.49975 6.17765C4.16626 4.63878 5.83831 3.91551 7.51592 4.00784C9.31575 3.98732 10.96 4.66442 12.4488 6.03915L12.7987 6.36231L6.03274 12.6255C7.16596 13.595 8.23252 14.703 9.21576 14.9184C10.199 15.1339 11.1989 14.8723 12.0155 14.1182C12.5321 13.6412 12.8821 12.5332 13.032 11.8253C13.182 11.1174 13.1654 10.2403 12.9654 9.19384L15.5318 8.4244C16.0378 9.7218 16.136 11.1249 15.8151 12.4716C15.4818 13.7797 14.7652 15.457 13.6487 16.4881ZM7.54926 8.07046C7.16701 7.74862 6.69269 7.53497 6.18272 7.45491C5.605 7.3831 5.06617 7.57289 4.56622 8.02429C4.06627 8.4757 3.86073 9.10663 3.94961 9.91711C4.05654 10.2803 4.21929 10.6276 4.4329 10.9482L7.54926 8.07046Z" fill="white"/>
<path d="M33.731 9.83782C33.731 12.7572 32.9071 14.9933 31.2593 16.546C29.6195 18.0987 27.2478 18.875 24.1441 18.875H19.1768V1.14027H24.6841C27.5477 1.14027 29.7715 1.90449 31.3553 3.43293C32.9391 4.96137 33.731 7.09633 33.731 9.83782ZM29.8674 9.93487C29.8674 6.1259 28.2036 4.22141 24.8761 4.22141H22.8963V15.7696H24.4921C28.0757 15.7696 29.8674 13.8247 29.8674 9.93487Z" fill="white"/>
<path d="M45.5975 18.875L44.8896 17.0312H44.7936C44.1777 17.8156 43.5418 18.3615 42.8858 18.6688C42.2379 18.968 41.39 19.1176 40.3422 19.1176C39.0543 19.1176 38.0384 18.7456 37.2945 18.0016C36.5586 17.2576 36.1907 16.1982 36.1907 14.8235C36.1907 13.384 36.6866 12.3246 37.6785 11.6453C38.6784 10.9579 40.1822 10.5778 42.1899 10.505L44.5176 10.4322V9.83782C44.5176 8.46304 43.8217 7.77564 42.4299 7.77564C41.358 7.77564 40.0982 8.10317 38.6504 8.75821L37.4385 6.25933C38.9823 5.44254 40.6941 5.03415 42.5739 5.03415C44.3737 5.03415 45.7535 5.43041 46.7134 6.22294C47.6733 7.01546 48.1532 8.22043 48.1532 9.83782V18.875H45.5975ZM44.5176 12.5914L43.1018 12.64C42.0379 12.6723 41.246 12.8664 40.7261 13.2222C40.2062 13.5781 39.9462 14.1199 39.9462 14.8477C39.9462 15.8909 40.5381 16.4125 41.722 16.4125C42.5699 16.4125 43.2458 16.1659 43.7497 15.6726C44.2617 15.1793 44.5176 14.5242 44.5176 13.7074V12.5914Z" fill="white"/>
<path d="M61.2916 14.8477C61.2916 16.2387 60.8116 17.2981 59.8518 18.0259C58.8999 18.7537 57.472 19.1176 55.5683 19.1176C54.5924 19.1176 53.7605 19.0489 53.0726 18.9114C52.3847 18.782 51.7407 18.5879 51.1408 18.3292V15.2723C51.8207 15.5958 52.5846 15.8667 53.4325 16.085C54.2884 16.3034 55.0403 16.4125 55.6883 16.4125C57.0161 16.4125 57.68 16.0244 57.68 15.248C57.68 14.9569 57.592 14.7224 57.416 14.5445C57.2401 14.3585 56.9361 14.1522 56.5042 13.9258C56.0722 13.6913 55.4963 13.4204 54.7764 13.1131C53.7445 12.6764 52.9846 12.272 52.4967 11.9C52.0167 11.528 51.6648 11.1034 51.4408 10.6263C51.2248 10.1411 51.1168 9.54669 51.1168 8.84313C51.1168 7.63816 51.5768 6.70816 52.4967 6.05311C53.4245 5.38998 54.7364 5.05841 56.4322 5.05841C58.048 5.05841 59.6198 5.41424 61.1476 6.1259L60.0437 8.7946C59.3718 8.50347 58.7439 8.2649 58.16 8.0789C57.576 7.8929 56.9801 7.7999 56.3722 7.7999C55.2923 7.7999 54.7524 8.09508 54.7524 8.68543C54.7524 9.017 54.9244 9.30408 55.2683 9.54669C55.6203 9.7893 56.3842 10.1492 57.56 10.6263C58.6079 11.0549 59.3758 11.4552 59.8638 11.8272C60.3517 12.1992 60.7116 12.6278 60.9436 13.1131C61.1756 13.5983 61.2916 14.1765 61.2916 14.8477Z" fill="white"/>
<path d="M76.5297 18.875H72.8701V10.9538C72.8701 8.99678 72.1502 8.01825 70.7104 8.01825C69.6865 8.01825 68.9466 8.37004 68.4907 9.0736C68.0347 9.77717 67.8068 10.9174 67.8068 12.4944V18.875H64.1472V0H67.8068V3.84536C67.8068 4.14458 67.7788 4.84815 67.7228 5.95607L67.6388 7.04781H67.8308C68.6467 5.72155 69.9425 5.05841 71.7183 5.05841C73.2941 5.05841 74.4899 5.48702 75.3059 6.34424C76.1217 7.20147 76.5297 8.43069 76.5297 10.0319V18.875Z" fill="white"/>
<path d="M83.8828 18.9941V1.14746H85.1263V17.8223H93.6235V18.9941H83.8828Z" fill="white"/>
<path d="M97.6099 18.9941H96.403V5.7251H97.6099V18.9941ZM96.2323 2.03857C96.2323 1.25732 96.4884 0.866699 97.0004 0.866699C97.2523 0.866699 97.4474 0.968424 97.5855 1.17188C97.7318 1.37533 97.805 1.66423 97.805 2.03857C97.805 2.40479 97.7318 2.69368 97.5855 2.90527C97.4474 3.11686 97.2523 3.22266 97.0004 3.22266C96.4884 3.22266 96.2323 2.82796 96.2323 2.03857Z" fill="white"/>
<path d="M112.398 5.7251V6.56738L109.655 6.73828C110.386 7.64974 110.752 8.65072 110.752 9.74121C110.752 11.0189 110.325 12.0565 109.472 12.854C108.627 13.6434 107.489 14.0381 106.058 14.0381C105.457 14.0381 105.034 14.0137 104.79 13.9648C104.311 14.2171 103.945 14.5142 103.693 14.856C103.441 15.1978 103.315 15.5599 103.315 15.9424C103.315 16.3656 103.474 16.6748 103.791 16.8701C104.116 17.0654 104.656 17.1631 105.412 17.1631H107.728C109.167 17.1631 110.268 17.4561 111.032 18.042C111.796 18.6198 112.178 19.4784 112.178 20.6177C112.178 22.0174 111.609 23.0957 110.471 23.8525C109.342 24.6175 107.728 25 105.632 25C103.966 25 102.673 24.6785 101.755 24.0356C100.845 23.3927 100.389 22.4976 100.389 21.3501C100.389 20.4386 100.67 19.6818 101.231 19.0796C101.8 18.4774 102.568 18.0664 103.535 17.8467C103.137 17.6758 102.816 17.4357 102.572 17.1265C102.336 16.8091 102.218 16.4469 102.218 16.04C102.218 15.153 102.783 14.3717 103.913 13.6963C103.141 13.3789 102.539 12.8825 102.108 12.207C101.678 11.5234 101.462 10.7422 101.462 9.86328C101.462 8.53678 101.881 7.47477 102.718 6.67725C103.563 5.87158 104.701 5.46875 106.131 5.46875C107.001 5.46875 107.676 5.5542 108.155 5.7251H112.398ZM101.67 21.2402C101.67 23.0632 103.023 23.9746 105.729 23.9746C109.208 23.9746 110.947 22.8638 110.947 20.6421C110.947 19.8446 110.675 19.2668 110.13 18.9087C109.586 18.5506 108.704 18.3716 107.485 18.3716H105.315C102.885 18.3716 101.67 19.3278 101.67 21.2402ZM102.681 9.86328C102.681 10.8887 102.99 11.6862 103.608 12.2559C104.234 12.8174 105.067 13.0981 106.107 13.0981C107.212 13.0981 108.058 12.8174 108.643 12.2559C109.236 11.6943 109.533 10.8805 109.533 9.81445C109.533 8.68327 109.228 7.83691 108.618 7.27539C108.017 6.70573 107.172 6.4209 106.083 6.4209C105.026 6.4209 104.193 6.72607 103.584 7.33643C102.982 7.93864 102.681 8.78092 102.681 9.86328Z" fill="white"/>
<path d="M124.369 18.9941V10.3882C124.369 9.05355 124.089 8.08512 123.528 7.48291C122.967 6.87256 122.098 6.56738 120.919 6.56738C119.334 6.56738 118.172 6.97021 117.433 7.77588C116.701 8.57341 116.335 9.87142 116.335 11.6699V18.9941H115.128V0H116.335V6.04248L116.274 7.73926H116.36C116.856 6.94173 117.481 6.36393 118.237 6.00586C118.993 5.64779 119.932 5.46875 121.053 5.46875C124.06 5.46875 125.564 7.08415 125.564 10.3149V18.9941H124.369Z" fill="white"/>
<path d="M133.354 18.1641C134.118 18.1641 134.784 18.099 135.353 17.9688V18.9453C134.768 19.1406 134.094 19.2383 133.33 19.2383C132.159 19.2383 131.294 18.925 130.733 18.2983C130.18 17.6717 129.904 16.687 129.904 15.3442V6.7749H127.941V6.06689L129.904 5.51758L130.514 2.51465H131.135V5.7251H135.024V6.7749H131.135V15.1733C131.135 16.1906 131.314 16.9434 131.672 17.4316C132.029 17.9199 132.59 18.1641 133.354 18.1641Z" fill="white"/>
</svg>
