<svg width="16" height="15" viewBox="0 0 16 15" fill="none" xmlns="http://www.w3.org/2000/svg">
<path d="M13.6487 12.4881C11.9044 14.0988 10.0212 14.9349 7.99921 14.9964C5.97719 15.058 4.13848 14.3193 2.48309 12.7805C0.915467 11.2907 0.026681 9.30224 0 7.22515C0 5.39902 0.833251 3.71652 2.49975 2.17765C4.16626 0.638777 5.83831 -0.0844928 7.51592 0.00783953C9.31575 -0.0126788 10.96 0.664425 12.4488 2.03915L12.7987 2.36231L6.03274 8.62552C7.16596 9.59501 8.23252 10.703 9.21576 10.9184C10.199 11.1339 11.1989 10.8723 12.0155 10.1182C12.5321 9.64117 12.8821 8.53319 13.032 7.82531C13.182 7.11743 13.1654 6.24027 12.9654 5.19384L15.5318 4.4244C16.0378 5.7218 16.136 7.12489 15.8151 8.47163C15.4818 9.77967 14.7652 11.457 13.6487 12.4881ZM7.54926 4.07046C7.16701 3.74862 6.69269 3.53497 6.18272 3.45491C5.605 3.3831 5.06617 3.57289 4.56622 4.02429C4.06627 4.4757 3.86073 5.10663 3.94961 5.91711C4.05654 6.28034 4.21929 6.62755 4.4329 6.94815L7.54926 4.07046Z" fill="#2F80ED"/>
</svg>
