<svg width="13" height="13" viewBox="0 0 13 13" fill="none" xmlns="http://www.w3.org/2000/svg">
<path opacity="0.6" d="M12.654 5.71461L6.74264 0.29794C6.51911 0.103352 6.22148 -0.0035279 5.91319 8.8889e-05C5.6049 0.00370568 5.31034 0.117533 5.09233 0.317301C4.87432 0.517069 4.75009 0.786973 4.74615 1.06946C4.7422 1.35196 4.85884 1.62469 5.0712 1.8295L8.96383 5.39705H1.10832C0.496213 5.39705 0 5.88208 0 6.48039C0 7.0787 0.496213 7.56372 1.10832 7.56372H8.96383L5.0712 11.1313C4.9568 11.2309 4.86531 11.3504 4.80213 11.483C4.73895 11.6155 4.70536 11.7582 4.70334 11.9028C4.70132 12.0474 4.73091 12.1909 4.79037 12.3248C4.84982 12.4588 4.93794 12.5805 5.04952 12.6827C5.16111 12.7849 5.2939 12.8657 5.44008 12.9202C5.58626 12.9747 5.74286 13.0018 5.90065 12.9999C6.05845 12.9981 6.21423 12.9673 6.35884 12.9094C6.50345 12.8515 6.63394 12.7677 6.74264 12.6628L12.654 7.24617C12.8755 7.04303 13 6.76758 13 6.48039C13 6.19319 12.8755 5.91775 12.654 5.71461Z" fill="white"/>
</svg>
